<svg width="917" height="795" viewBox="0 0 917 795" fill="none" xmlns="http://www.w3.org/2000/svg">
<path d="M14.864 592.881L127.582 592.339L240.322 592.136L465.781 591.753L691.239 592.136L803.979 592.339L916.697 592.881L803.979 593.444L691.239 593.625L465.781 594.008L240.322 593.625L127.582 593.422L14.864 592.881Z" fill="#263238"/>
<path d="M856.607 529.496C849.054 519.683 840.469 508.879 840.918 495.841C841.411 483.841 845.4 470.509 856.383 464.103C859.521 462.299 861.807 461.667 862.816 465.705C864.34 471.885 861.717 479.397 860.417 485.397C858.621 493.098 857.555 500.953 857.235 508.856C857.078 514.428 857.459 519.977 857.436 525.548C857.436 526.248 857.436 526.947 857.436 527.646C857.436 527.894 857.436 528.187 857.436 528.436L857.638 528.729C857.68 528.821 857.702 528.921 857.702 529.022C857.702 529.123 857.68 529.223 857.638 529.315C857.619 529.392 857.58 529.462 857.526 529.518C857.401 529.638 857.234 529.703 857.062 529.699C856.89 529.694 856.726 529.621 856.607 529.496Z" fill="#FFC727"/>
<path d="M857.616 529.518C851.452 520.495 844.167 511.292 845.131 499.901C845.664 494.591 847.025 489.399 849.166 484.517C850.107 482.261 852.842 475.652 855.71 475.494C860.91 475.223 853.962 496.224 853.626 498.705C852.586 507.832 853.923 517.075 857.504 525.525C857.504 526.225 857.504 526.924 857.504 527.623C854.866 521.694 853.215 515.369 852.617 508.901C851.833 499.878 854.859 492.457 856.473 483.818C856.831 481.968 858.266 476.058 855.083 476.532C852.976 476.848 850.264 483.299 849.681 484.697C847.676 489.332 846.376 494.245 845.826 499.269C844.75 510.773 851.743 520.112 857.75 529.292C857.729 529.379 857.682 529.458 857.616 529.518Z" fill="white"/>
<path d="M854.477 539.466L853.132 540.052C853.082 540.084 853.024 540.101 852.964 540.101C852.905 540.101 852.846 540.084 852.796 540.052C852.692 539.979 852.618 539.869 852.589 539.744C852.56 539.619 852.578 539.488 852.639 539.375C852.688 539.288 852.768 539.223 852.863 539.195H853.065L853.469 539.06C858.803 532.473 865.191 526.811 870.481 520.134C875.77 513.458 880.118 507.051 885.632 501.096C889.106 497.329 907.485 479.712 911.408 490.607C913.134 495.435 909.346 502.36 906.925 506.397C903.71 511.753 899.556 516.476 894.665 520.337C882.808 529.744 868.217 533.353 854.477 539.466Z" fill="#FFC727"/>
<path d="M881.935 523.97C886.722 520.776 891.032 516.909 894.733 512.488C896.01 510.954 902.107 503.465 900.09 501.21C898.812 499.631 895.36 501.683 894.195 502.315C889.241 505.044 885.678 509.871 881.89 513.954C874.174 522.231 865.866 529.929 857.033 536.985L855.128 538L853.537 538.857L852.999 539.15L852.595 539.398C852.538 539.512 852.523 539.642 852.551 539.766C852.58 539.889 852.651 539.999 852.752 540.075L853.985 539.421L853.088 540.12L854.164 539.624L854.433 539.511C854.926 539.15 855.442 538.767 855.912 538.383C864.862 534.1 873.551 529.287 881.935 523.97ZM859.162 535.812C864.34 531.707 869.271 527.308 874.045 522.706C877.878 519.007 881.531 515.127 885.095 511.18C887.042 508.875 889.179 506.739 891.483 504.796C893.298 503.353 900.448 498.638 898.655 505.292C897.4 510.12 891.259 515.511 887.695 518.578C883.692 521.968 879.393 524.988 874.852 527.601C869.719 530.466 864.407 533.105 859.162 535.812Z" fill="white"/>
<path d="M830.921 564.73C830.805 564.634 830.707 564.52 830.63 564.391C824.511 554.85 814.94 543.233 815.456 531.187C815.881 522.3 820.745 510.367 829.509 506.736C839.416 502.653 837.488 521.465 837.219 526.27C836.038 539.15 834.137 551.952 831.526 564.617V564.842C831.324 565.045 831.123 564.91 830.921 564.73Z" fill="#FFC727"/>
<path d="M831.414 564.865C831.414 564.098 831.302 563.331 831.257 562.609C830.719 553.835 830.54 545.015 830.831 536.218C830.831 533.962 832.646 516.999 828.253 517.811C825.609 518.307 824.017 524.578 823.434 526.721C822.396 530.453 821.987 534.334 822.224 538.203C822.807 547.09 827.312 555.12 830.45 563.376C830.607 563.76 830.764 564.143 830.898 564.549V564.797C831.122 564.91 831.324 565.045 831.414 564.865ZM823.591 542.894C822.83 539.008 822.716 535.021 823.255 531.097C823.614 528.503 825.183 519.097 828.477 518.916C830.203 518.804 830.024 519.909 830.36 521.894C830.513 522.805 830.61 523.724 830.652 524.646C830.652 526.902 830.652 529.157 830.472 531.413C830.271 535.383 830.158 539.353 830.136 543.346C830.136 549.865 830.338 556.361 830.764 562.857C828.5 556.158 825.003 549.842 823.591 542.894Z" fill="white"/>
<path d="M861.762 567.91C849.568 573.094 836.114 574.5 823.121 571.948H822.897C822.811 571.875 822.75 571.778 822.722 571.669C822.693 571.559 822.7 571.444 822.74 571.339C822.776 571.223 822.853 571.125 822.957 571.063C823.06 571 823.182 570.978 823.3 571L824.107 571.136C837.555 563.669 851.161 556.406 864.564 548.579C867.702 546.752 888.053 535.518 889.219 543.504C889.891 548.444 882.495 554.218 879.177 557.038C873.968 561.55 868.093 565.218 861.762 567.91Z" fill="#FFC727"/>
<path d="M875.949 552.504C876.756 551.443 877.429 550.113 875.949 549.481C872.968 548.24 863.532 553.722 860.843 555.098C849.636 560.827 838.429 565.406 826.819 570.075L823.882 571.271H822.739C822.696 571.376 822.687 571.492 822.716 571.602C822.744 571.712 822.807 571.81 822.896 571.88H823.21C823.703 571.88 824.241 571.88 824.757 571.88C832.951 571.939 841.104 570.706 848.919 568.226C853.849 566.659 858.604 564.58 863.106 562.023C867.275 559.541 873.103 556.406 875.949 552.504ZM825.317 571.248H824.577C825.003 571.113 825.407 571 825.81 570.842C835.002 567.804 843.986 564.164 852.706 559.947C857.189 557.692 861.358 555.436 865.841 553.338C867.723 552.481 872.991 549.909 874.806 550.722C876.622 551.534 874.694 552.842 873.73 553.744C872.767 554.646 871.668 555.391 870.973 556C857.767 565.801 841.815 571.139 825.407 571.248H825.317Z" fill="white"/>
<path d="M797.502 592.88L796.18 591.053L800.932 587.444C807.275 582.527 813.573 577.564 819.781 572.466C823.345 569.557 826.819 566.647 830.181 563.624C830.29 563.507 830.41 563.401 830.54 563.308L831.347 562.541C831.631 562.301 831.922 562.03 832.221 561.729C839.861 554.937 846.389 546.974 851.564 538.135C853.267 535.135 854.814 532.067 856.293 528.954C856.45 528.661 856.585 528.368 856.719 528.074C856.765 527.996 856.803 527.913 856.831 527.826C856.988 527.51 857.122 527.217 857.257 526.879L857.593 526.18C862.076 516.548 865.617 506.532 869.472 496.72C870.571 493.923 871.714 491.104 872.812 488.307L873.014 487.81C873.014 487.607 873.171 487.382 873.26 487.179C878.214 474.795 883.301 462.366 887.919 449.96C888.076 449.486 888.77 449.824 888.591 450.276C885.588 458.644 882.764 467.058 879.895 475.494C879.536 476.622 879.133 477.75 878.752 478.855C877.989 481.111 877.25 483.367 876.51 485.487C875.016 489.998 873.44 494.404 871.781 498.705C867.49 511.225 862.438 523.466 856.652 535.36C856.203 536.24 855.733 537.097 855.262 537.954C854.791 538.811 854.679 539.06 854.343 539.556C854.007 540.052 853.671 540.796 853.29 541.406C846.813 551.84 838.549 561.035 828.881 568.564L826.909 570.188L825.99 570.955C825.816 571.078 825.651 571.214 825.497 571.361L824.847 571.857L824.354 572.241L822.628 573.594C816.33 578.557 809.942 583.429 803.576 588.279C801.469 589.722 799.43 591.301 797.502 592.88Z" fill="#FFC727"/>
<path d="M875.793 452.802C878.908 442.9 888.187 426.388 900.717 428.576C903.074 428.924 905.222 430.132 906.751 431.971C908.28 433.809 909.084 436.15 909.01 438.546C909.01 444.501 904.908 450.118 901.411 454.584C892.087 466.517 881.687 477.457 873.193 490.044C873.193 490.179 872.453 491.127 872.274 491.42C872.094 491.713 871.736 491.42 871.893 491.104L872.722 489.863C872.767 477.66 872.072 464.555 875.793 452.802Z" fill="#FFC727"/>
<path d="M873.216 490.134C873.216 490.134 873.216 489.954 873.328 489.863C874.888 486.091 876.669 482.416 878.662 478.856C882.936 471.511 887.644 464.43 892.76 457.652C894.71 455.013 904.505 442.449 896.391 441.569C892.984 441.208 889.488 444.118 887.157 446.261C883.44 449.721 880.445 453.893 878.348 458.532C874.045 467.69 873.081 477.818 872.924 487.856C872.924 488.307 872.924 488.781 872.924 489.232L872.745 489.638C872.694 489.722 872.656 489.813 872.633 489.909C872.61 489.967 872.61 490.031 872.633 490.089C872.643 490.137 872.663 490.183 872.692 490.223C872.72 490.263 872.757 490.297 872.799 490.322C872.841 490.347 872.887 490.364 872.936 490.37C872.985 490.377 873.034 490.373 873.081 490.36C873.118 490.334 873.15 490.301 873.173 490.262C873.196 490.223 873.211 490.179 873.216 490.134ZM873.216 487.179C873.313 478.887 874.658 470.658 877.205 462.773C878.663 458.696 880.709 454.857 883.279 451.381C884.429 449.848 885.703 448.415 887.09 447.095C888.12 446.095 889.238 445.189 890.429 444.389C893.029 442.629 896.548 441.659 897.893 442.99C899.574 444.614 898.946 446.035 897.691 448.81C897.259 449.747 896.772 450.659 896.234 451.539C894.893 453.718 893.442 455.826 891.886 457.855C889.353 461.284 886.865 464.622 884.49 468.209C882.876 470.577 881.307 473.013 879.85 475.495C877.303 479.744 875.056 484.169 873.126 488.736C873.103 488.217 873.148 487.698 873.171 487.179H873.216Z" fill="white"/>
<path d="M29.7028 513.661C35.7769 519.323 41.4923 525.368 47.1181 531.458C50.3233 534.932 53.4612 538.428 56.6888 541.879C60.2077 545.692 63.5473 549.955 68.5007 551.827C68.7215 551.921 68.9258 552.051 69.1059 552.211C69.1324 552.316 69.1312 552.428 69.1024 552.533C69.0735 552.638 69.0179 552.734 68.9411 552.812C68.8643 552.889 68.7689 552.945 68.6642 552.974C68.5595 553.003 68.4491 553.004 68.3438 552.977L68.0076 552.842H67.9404C66.4124 552.665 64.9089 552.317 63.4576 551.805C59.3792 550.838 55.3603 549.633 51.4215 548.195C43.3207 545.318 35.6101 541.431 28.47 536.624C22.0982 532.306 16.3247 527.156 11.3012 521.307C7.28919 516.616 1.25993 509.691 0.0944245 503.375C-0.914187 497.668 6.41506 498.863 9.79951 499.788C17.5098 502.179 23.9201 508.337 29.7028 513.661Z" fill="#FFC727"/>
<path d="M11.2337 509.488C9.48549 511.946 16.0975 519.39 18.8768 522.706C23.2605 527.935 28.2664 532.602 33.7818 536.601C43.7277 543.697 54.8013 549.036 66.5281 552.391L67.9401 552.82H68.0746L68.3884 552.932C68.4951 552.964 68.6084 552.967 68.7164 552.94C68.8245 552.913 68.9235 552.858 69.0034 552.78C69.0832 552.702 69.141 552.604 69.1708 552.496C69.2005 552.388 69.2013 552.274 69.1729 552.165C68.2315 551.737 67.3349 551.286 66.4608 550.789C65.5867 550.293 64.847 549.887 64.085 549.413C55.6126 544.338 48.261 537.278 41.0438 530.556C32.5715 522.751 13.5648 506.239 11.2337 509.488ZM65.3401 551.083C66.5056 551.737 67.716 552.346 68.9039 552.91L66.0574 551.962C55.821 548.671 46.0728 544.005 37.0766 538.09C32.0305 534.721 27.3568 530.819 23.1354 526.45C20.8789 524.102 18.768 521.616 16.8147 519.007C16.0078 517.901 10.6734 511.382 12.0855 510.097C13.0717 509.217 19.1906 513.232 19.3251 513.3C20.5354 514.089 21.7457 514.946 22.9112 515.826C25.3543 517.608 27.6853 519.548 29.9715 521.511C34.9473 525.796 39.6766 530.353 44.4955 534.797C50.7863 541.028 57.7824 546.494 65.3401 551.083Z" fill="white"/>
<path d="M75.6054 488.33C81.1416 499.112 82.5088 511.496 82.5088 523.451C82.5088 529.88 82.3744 536.286 82.3071 542.669C81.941 548.397 82.1437 554.148 82.9123 559.835C82.9123 560.061 82.9123 560.331 83.0692 560.58C83.3998 562.135 83.9035 563.649 84.5709 565.091C84.5927 565.137 84.6041 565.187 84.6041 565.238C84.6041 565.288 84.5927 565.338 84.5709 565.384L84.8398 565.813C84.8398 565.926 84.8398 566.061 84.6829 565.971L84.2795 565.61C84.2055 565.625 84.1284 565.613 84.0625 565.576C83.9966 565.538 83.9463 565.478 83.9209 565.407V565.226L83.5399 564.865C74.2382 556.226 69.0383 541.632 65.609 529.902C62.1797 518.172 60.4314 505.676 63.5021 493.811C64.2866 490.811 65.609 483.66 69.2176 482.533C72.8262 481.405 74.4399 486.029 75.6054 488.33Z" fill="#FFC727"/>
<path d="M70.6968 495.299C67.0434 495.931 67.8279 505.991 67.9399 508.45C68.4041 515.902 69.5141 523.298 71.2572 530.556C73.5202 542.402 77.6116 553.819 83.3829 564.391L83.5174 564.797C83.6329 564.936 83.7604 565.064 83.8984 565.181C83.8864 565.24 83.8864 565.302 83.8984 565.361C83.9274 565.43 83.9784 565.488 84.0433 565.524C84.1082 565.561 84.1834 565.575 84.257 565.564L84.1226 565C83.7191 563.534 83.3829 562.023 83.0691 560.489C83.0691 560.218 82.957 559.97 82.9122 559.744C81.1732 549.231 80.1175 538.614 79.7519 527.962C79.3207 520.544 78.2103 513.181 76.4347 505.969C75.9416 504.209 73.7675 494.803 70.6968 495.299ZM73.9692 500.645C78.9674 512.262 78.8105 526.067 79.6398 538.473C80.0006 546.838 81.164 555.147 83.1139 563.286C78.2318 553.536 74.6664 543.174 72.5123 532.473C71.0707 526.42 69.9706 520.29 69.2175 514.112C68.7735 510.763 68.5861 507.384 68.6572 504.006C68.6773 501.976 68.9331 499.954 69.4192 497.984C70.6744 494.397 73.1175 498.638 73.9692 500.645Z" fill="white"/>
<path d="M104.451 581.512C104.504 581.612 104.532 581.725 104.532 581.839C104.532 581.953 104.504 582.065 104.451 582.166H104.698C104.751 582.166 104.803 582.187 104.841 582.225C104.878 582.263 104.9 582.315 104.9 582.369C104.907 582.393 104.908 582.418 104.904 582.443C104.899 582.468 104.889 582.491 104.873 582.511C104.858 582.531 104.838 582.547 104.815 582.557C104.793 582.568 104.768 582.573 104.743 582.572C90.4205 584.828 74.4845 585.504 60.3863 581.647C54.4179 580.046 48.748 577.478 43.5985 574.045C40.102 571.677 33.0417 566.872 32.6383 562.113C31.8538 552.549 57.0467 562.474 60.8346 563.985C67.738 566.737 74.4172 570.053 81.2534 573.008C88.7619 576.166 96.4946 578.737 104.205 581.354C104.3 581.384 104.385 581.438 104.451 581.512Z" fill="#FFC727"/>
<path d="M104.429 581.512C103.667 581.512 102.905 581.377 102.187 581.264C89.6577 579.86 77.4179 576.52 65.8998 571.361C60.1877 568.612 54.2573 566.349 48.1707 564.594C46.6465 564.233 41.0431 562.338 41.9397 566.06C42.4104 567.933 51.6448 573.301 54.1551 574.497C59.9294 577.137 66.0041 579.054 72.2429 580.204C82.6795 582.286 93.3342 583.044 103.958 582.459H104.877C104.877 582.434 104.872 582.408 104.862 582.385C104.851 582.361 104.836 582.34 104.817 582.323C104.798 582.306 104.775 582.293 104.751 582.285C104.726 582.278 104.701 582.276 104.675 582.279H104.451C104.532 582.166 104.573 582.03 104.569 581.891C104.565 581.753 104.516 581.619 104.429 581.512ZM77.5325 580.407C71.2967 579.547 65.167 578.035 59.243 575.895C56.8961 575.025 54.6054 574.008 52.3844 572.85C50.6257 571.967 48.9327 570.957 47.3189 569.827C43.4414 566.985 42.6569 565.948 42.9931 565.203C43.3293 564.459 44.0241 564.481 47.162 565C49.1952 565.375 51.1853 565.957 53.1016 566.737C55.8137 567.775 58.5257 568.993 61.193 570.076C66.5722 572.331 71.9067 574.812 77.4428 576.73C85.3522 579.536 93.5987 581.265 101.963 581.873C93.7858 582.072 85.6061 581.582 77.51 580.407H77.5325Z" fill="white"/>
<path d="M102.95 540.098C106.357 544.019 108.88 548.636 110.346 553.632C113.619 563.444 114.829 573.933 117.339 583.835C117.743 585.324 118.146 586.813 118.617 588.347C118.617 588.505 119.648 590.129 119.536 590.039C119.424 589.948 119.02 589.542 118.236 588.708C114.358 584.625 102.815 572.016 98.3999 563.489C95.49 558.214 93.2319 552.601 91.6759 546.774C91.0483 544.022 89.8828 537.752 92.6172 535.631C95.3517 533.511 101.09 538.113 102.95 540.098Z" fill="#FFC727"/>
<path d="M97.0772 542.511C93.2445 544.113 101.179 561.098 102.165 563.331C105.87 571.584 110.625 579.318 116.308 586.339C116.936 587.151 117.586 587.918 118.236 588.708L119.513 590.038C119.513 590.038 118.684 588.505 118.594 588.324C118.505 588.144 118.46 587.805 118.37 587.557C118.012 586.339 117.653 585.099 117.362 583.88C114.829 577.113 112.431 570.346 109.763 563.76C107.896 558.947 105.647 554.293 103.039 549.842C102.456 548.827 98.7582 541.812 97.0772 542.511ZM100.215 546.007C108.8 558.391 111.915 573.301 117.586 587.061C117.586 587.309 117.765 587.512 117.855 587.738L117.137 586.835C112.574 580.921 108.567 574.593 105.169 567.933C103.117 563.866 101.313 559.678 99.7668 555.391C98.8097 553.072 98.0084 550.69 97.3686 548.263C97.1445 547.203 96.6289 544.27 97.3686 543.91C98.1082 543.549 99.6548 545.218 100.215 546.007Z" fill="white"/>
<path d="M28.5821 442.719C42.0302 465.412 35.3062 494.6 47.1854 517.924V518.037C47.544 518.736 47.925 519.458 48.3285 520.157C48.3651 520.227 48.3846 520.305 48.3855 520.384C48.3864 520.462 48.3685 520.54 48.3335 520.611C48.2984 520.682 48.2471 520.743 48.1839 520.789C48.1207 520.836 48.0473 520.867 47.9698 520.879C47.897 520.883 47.8245 520.866 47.761 520.83C47.6974 520.794 47.6454 520.741 47.6112 520.676L47.3423 520.18C36.6286 510.165 27.9545 496.563 21.5666 483.412C16.0305 471.953 12.3771 459.118 14.2822 446.328C14.7305 443.17 15.4477 436.877 19.2356 435.704C23.0235 434.531 26.9235 439.99 28.5821 442.719Z" fill="#FFC727"/>
<path d="M23.9417 451.065C22.3504 451.584 22.1486 453.93 21.9693 455.216C21.5104 458.429 21.4426 461.686 21.7676 464.915C22.4336 471.541 24.0884 478.027 26.6762 484.156C30.748 494.78 36.1081 504.856 42.6347 514.157C44.1364 516.232 45.7277 518.24 47.4088 520.157L48.0363 520.879C48.1138 520.867 48.1871 520.836 48.2504 520.789C48.3136 520.743 48.3649 520.681 48.4 520.611C48.435 520.54 48.4528 520.462 48.452 520.383C48.4511 520.305 48.4316 520.227 48.3949 520.157C47.9915 519.48 47.6553 518.804 47.2743 518.105C47.2622 518.045 47.2622 517.984 47.2743 517.924C44.5457 513.436 42.2562 508.692 40.4381 503.758C37.9274 495.971 35.9135 488.029 34.4089 479.983C33.6468 476.848 29.3658 449.261 23.9417 451.065ZM27.5055 455.577C30.2624 461.509 31.1365 468.276 32.5485 474.615C33.9606 480.953 35.3278 487.45 36.8295 493.833C38.0373 498.916 39.6642 503.888 41.6933 508.698C43.3836 512.711 45.4316 516.561 47.8122 520.202C45.1169 516.936 42.6314 513.501 40.3709 509.916V509.758C36.4147 503.27 32.8592 496.543 29.7244 489.615C29.6964 489.528 29.6588 489.445 29.6124 489.367C26.717 483.319 24.5571 476.942 23.1797 470.374C22.4718 466.796 22.1636 463.149 22.2607 459.502C22.4624 455.351 23.0452 452.035 24.5021 451.99C25.3986 451.9 26.6986 453.953 27.5055 455.78V455.577Z" fill="white"/>
<path d="M30.2627 489.277C33.9609 495.818 37.8161 502.337 41.6936 508.811C43.5166 511.819 45.347 514.826 47.1849 517.834C47.1729 517.893 47.1729 517.955 47.1849 518.014L49.1573 521.308C55.1194 531.21 61.0141 541.609 68.5227 550.474C72.5442 555.106 76.9864 559.35 81.7915 563.151L83.2932 564.324L84.1225 564.933L84.5932 565.294C88.7621 568.542 93.1328 571.587 97.3914 574.519C103.309 578.625 109.472 582.302 115.681 585.911C115.849 586.034 116.029 586.14 116.219 586.226L117.048 586.745L117.496 586.971C117.75 587.142 118.012 587.3 118.281 587.444C120.276 588.617 122.27 589.7 124.243 590.963L122.988 592.768C116.468 589.829 110.175 586.406 104.16 582.527L103.802 582.279C103.196 581.918 102.614 581.535 102.031 581.151L99.7896 579.753L94.7241 576.301C84.7022 569.801 75.485 562.123 67.2675 553.429L66.8192 552.774L66.5503 552.459L66.0796 551.94L65.3624 551.06L64.1072 549.481L63.7486 549.007C57.5579 540.377 51.9566 531.333 46.9832 521.939C46.0419 520.247 45.1229 518.601 44.2039 516.909L42.6574 514.112C41.9178 512.691 41.1557 511.247 40.416 509.849V509.691C36.8523 502.924 33.4454 496.157 29.8368 489.502C29.5679 489.254 30.0834 488.961 30.2627 489.277Z" fill="#FFC727"/>
<path d="M465.781 794.585C701.954 794.585 893.41 762.036 893.41 721.884C893.41 681.732 701.954 649.183 465.781 649.183C229.608 649.183 38.152 681.732 38.152 721.884C38.152 762.036 229.608 794.585 465.781 794.585Z" fill="#EBEBEB"/>
<path d="M299.562 93.8538C285.643 105.606 217.214 190.082 115.389 162.855C115.389 162.855 132.894 235.714 167.501 235.714C202.107 235.714 222.795 182.841 222.795 182.841C222.795 182.841 226.561 192.067 235.526 191.255C253.748 189.631 286.046 136.622 299.562 106.779V93.8538Z" fill="#FFC727"/>
<path opacity="0.1" d="M299.562 93.8538C285.643 105.606 217.214 190.082 115.389 162.855C115.389 162.855 132.894 235.714 167.501 235.714C202.107 235.714 222.795 182.841 222.795 182.841C222.795 182.841 226.561 192.067 235.526 191.255C253.748 189.631 286.046 136.622 299.562 106.779V93.8538Z" fill="black"/>
<path opacity="0.1" d="M299.562 93.8538V102.358C290.865 114.945 247.854 174.359 205.94 184.6C159.006 196.104 115.389 162.855 115.389 162.855C217.214 190.082 285.643 105.606 299.562 93.8538Z" fill="black"/>
<path d="M632 93.8538C645.919 105.606 714.347 190.082 816.172 162.855C816.172 162.855 798.667 235.714 764.061 235.714C729.454 235.714 708.766 182.841 708.766 182.841C708.766 182.841 705.001 192.067 696.036 191.255C677.813 189.631 645.515 136.622 632 106.779V93.8538Z" fill="#FFC727"/>
<path opacity="0.1" d="M632 93.8538C645.919 105.606 714.347 190.082 816.172 162.855C816.172 162.855 798.667 235.714 764.061 235.714C729.454 235.714 708.766 182.841 708.766 182.841C708.766 182.841 705.001 192.067 696.036 191.255C677.813 189.631 645.515 136.622 632 106.779V93.8538Z" fill="black"/>
<path opacity="0.1" d="M632 93.8538V102.358C640.696 114.945 683.708 174.359 725.621 184.6C772.555 196.104 816.172 162.855 816.172 162.855C714.347 190.082 645.919 105.606 632 93.8538Z" fill="black"/>
<path d="M753.257 720.53C740.526 718.951 566.283 662.108 563.1 662.108C559.917 662.108 514.844 666.1 465.758 666.1C416.672 666.1 371.621 662.108 368.438 662.108C365.255 662.108 191.034 718.951 178.304 720.53C165.573 722.109 51.1288 565.203 56.5753 559.541C62.0218 553.88 104.316 562.745 109.068 561.955C113.82 561.166 195.002 513.931 195.809 509.894C196.615 505.856 209.257 405.816 222.862 327.34C236.467 248.865 265.268 131.095 299.225 93.8085C333.181 56.5219 416.986 35.1605 465.758 35.1605C514.53 35.1605 598.379 56.4994 632.336 93.8085C666.292 131.118 695.094 248.865 708.699 327.34C722.304 405.816 734.945 505.901 735.752 509.894C736.559 513.886 817.696 561.166 822.47 561.955C827.244 562.745 869.404 553.947 874.985 559.541C880.566 565.136 765.988 722.154 753.257 720.53Z" fill="#FFC727"/>
<path d="M410.218 42.8298C413.647 41.1831 429.471 23.9722 450.921 18.0171C458.34 15.987 444.668 31.5513 444.668 31.5513C444.668 31.5513 476.495 12.2877 489.316 7.64096C510.721 -0.141183 521.345 -1.76529 521.345 1.79871C521.345 9.7613 487.993 24.7391 482.39 31.1227C482.39 31.1227 502.181 26.2955 508.838 30.4911C515.495 34.6867 491.333 38.9274 491.333 38.9274L410.218 42.8298Z" fill="#FFC727"/>
<path opacity="0.1" d="M405.667 232.895C408.035 244.413 408.414 256.255 406.788 267.903C405.339 279.756 401.446 291.173 395.357 301.423C392.189 306.511 388.427 311.199 384.15 315.385C379.793 319.447 374.978 322.983 369.805 325.919C359.385 331.429 347.931 334.672 336.185 335.438C347.36 332.95 358.077 328.71 367.945 322.874C372.675 319.823 377.084 316.293 381.102 312.34C385.024 308.321 388.475 303.864 391.39 299.054C397.21 289.293 401.213 278.546 403.201 267.339C405.395 255.999 406.222 244.434 405.667 232.895Z" fill="black"/>
<path d="M337.441 175.51C293.645 175.51 271.612 209.345 271.612 248.865C271.612 280.873 297.612 313.558 339.637 313.558C381.663 313.558 407.685 275.211 407.685 245.098C407.685 214.984 385.092 175.51 337.441 175.51Z" fill="white"/>
<path d="M338.023 190.51C303.73 190.51 286.472 216.992 286.472 247.917C286.472 273.068 306.644 298.558 339.637 298.558C372.629 298.558 392.891 268.489 392.891 244.962C392.891 221.435 375.14 190.51 338.023 190.51Z" fill="#263238"/>
<path d="M353.713 191.051C338.136 191.051 330.313 203.097 330.313 217.127C330.377 220.243 331.055 223.316 332.31 226.165C333.564 229.015 335.369 231.585 337.62 233.726C339.87 235.867 342.521 237.537 345.419 238.637C348.316 239.737 351.403 240.246 354.498 240.135C369.425 240.135 378.682 226.466 378.682 215.796C378.673 212.517 378.019 209.272 376.756 206.248C375.494 203.225 373.648 200.483 371.326 198.182C369.004 195.881 366.252 194.066 363.229 192.842C360.206 191.618 356.972 191.01 353.713 191.051Z" fill="white"/>
<path d="M298.486 167.389C313.503 170.186 328.498 173.096 343.492 176.028C358.487 178.961 373.482 181.803 388.431 184.893L387.557 188.457L304.627 165.449L305.927 159.878C333.137 164.795 360.347 169.6 387.512 174.652L386.056 181.036L344.747 169.532L303.394 157.87L304.784 151.419L349.028 158.569L393.25 165.833L392.107 171.472L306.375 148.441L307.048 144.855C321.885 146.75 336.678 148.938 351.516 150.968C366.354 152.998 381.147 155.118 395.94 157.329C380.998 155.975 366.108 154.532 351.27 152.998C336.387 151.486 321.482 150.133 306.622 148.486L307.272 144.9L393.519 165.878L392.376 171.517L348.065 164.75L303.775 157.983L305.165 151.554L346.54 163.081L387.894 174.765L386.414 181.149C359.249 176.096 332.129 170.75 304.986 165.562L306.286 159.99L388.656 184.961L387.759 188.547C372.854 185.209 358.016 181.577 343.156 178.104C328.296 174.63 313.368 171.043 298.486 167.389Z" fill="#263238"/>
<path d="M463.539 79.5075C419.743 79.5075 397.71 113.343 397.71 152.84C397.71 184.848 423.71 217.533 465.736 217.533C507.761 217.533 533.783 179.187 533.783 149.073C533.783 118.96 511.146 79.5075 463.539 79.5075Z" fill="white"/>
<path d="M464.055 94.4852C429.785 94.4852 412.504 120.967 412.504 151.915C412.504 176.976 432.855 202.555 465.758 202.555C498.662 202.555 519.013 172.487 519.013 148.96C519.013 125.433 501.284 94.4852 464.055 94.4852Z" fill="#263238"/>
<path d="M464.996 91.9588C449.441 91.9588 441.596 103.982 441.596 118.035C441.666 121.148 442.348 124.216 443.605 127.062C444.862 129.908 446.667 132.474 448.917 134.612C451.166 136.75 453.815 138.418 456.71 139.518C459.605 140.618 462.688 141.128 465.781 141.02C480.73 141.02 489.965 127.373 489.965 116.681C489.953 113.404 489.297 110.161 488.033 107.14C486.769 104.119 484.923 101.381 482.601 99.0819C480.28 96.7832 477.528 94.9702 474.507 93.7476C471.485 92.525 468.253 91.9171 464.996 91.9588Z" fill="white"/>
<path d="M418.712 90.1543C433.983 89.8235 449.254 89.5753 464.525 89.4099C479.789 89.2294 495.053 88.9136 510.316 88.8685L510.182 92.5679L424.338 86.9963L424.495 81.2669C452.108 80.5225 479.744 79.6428 507.425 79.0112L507.268 85.5752L464.413 82.7782L421.581 79.8007V73.214L466.408 71.1613L511.235 69.2214V74.996L422.522 70.0561V66.4018C437.427 65.2289 452.377 64.3492 467.35 63.3115C482.322 62.2739 497.204 61.304 512.177 60.4243C497.324 62.1536 482.449 63.7928 467.551 65.3417C452.669 66.8981 437.808 68.635 422.926 70.0561V66.4018L511.616 69.3117V75.0637L466.789 77.5675L421.962 79.8232V73.214L464.794 76.0336L507.649 79.0788L507.492 85.6429C479.879 86.2294 452.243 86.5677 424.562 87.0189L424.719 81.2894L510.406 88.9136L510.249 92.5904C494.985 92.3649 479.722 91.8686 464.458 91.5077C449.195 91.1468 433.976 90.6957 418.712 90.1543Z" fill="#263238"/>
<path opacity="0.1" d="M526.297 232.895C525.668 244.425 526.421 255.99 528.539 267.339C530.519 278.544 534.515 289.292 540.328 299.054C543.25 303.864 546.709 308.322 550.638 312.34C554.652 316.298 559.061 319.828 563.795 322.874C573.661 328.714 584.379 332.954 595.555 335.438C583.809 334.672 572.355 331.429 561.935 325.919C556.758 322.989 551.943 319.453 547.59 315.385C543.314 311.199 539.551 306.511 536.383 301.423C530.295 291.173 526.401 279.756 524.953 267.903C523.411 256.242 523.866 244.401 526.297 232.895Z" fill="black"/>
<path d="M594.525 175.51C638.321 175.51 660.331 209.345 660.331 248.865C660.331 280.873 634.354 313.558 592.306 313.558C550.258 313.558 524.281 275.211 524.281 245.098C524.281 214.984 546.963 175.51 594.525 175.51Z" fill="white"/>
<path d="M594.031 190.51C628.324 190.51 645.583 216.992 645.583 247.917C645.583 272.978 625.231 298.558 592.328 298.558C559.425 298.558 539.051 268.557 539.051 244.962C539.051 221.368 556.802 190.51 594.031 190.51Z" fill="#263238"/>
<path d="M578.162 191.051C593.74 191.051 601.562 203.097 601.562 217.127C601.499 220.243 600.82 223.316 599.566 226.165C598.311 229.015 596.506 231.585 594.256 233.726C592.005 235.867 589.354 237.537 586.456 238.637C583.559 239.737 580.473 240.246 577.378 240.135C562.428 240.135 553.193 226.466 553.193 215.796C553.202 212.517 553.857 209.272 555.119 206.248C556.382 203.225 558.227 200.483 560.549 198.182C562.871 195.881 565.623 194.066 568.646 192.842C571.67 191.618 574.904 191.01 578.162 191.051Z" fill="white"/>
<path d="M633.076 167.389C618.238 171.044 603.378 174.562 588.495 178.059C573.613 181.555 558.797 185.164 543.892 188.503L542.996 184.916L625.366 159.946L626.666 165.517C599.523 170.705 572.402 176.051 545.237 181.104L543.758 174.72L585.111 163.036L626.486 151.509L627.876 157.938L583.587 164.705L539.275 171.472L538.132 165.833L624.38 144.855L625.03 148.442C610.169 150.088 595.264 151.442 580.382 152.953C565.499 154.464 550.616 155.93 535.711 157.284C550.504 155.073 565.312 152.953 580.135 150.923C594.973 148.893 609.766 146.705 624.604 144.81L625.276 148.396L539.544 171.562L538.401 165.923L582.623 158.66L626.867 151.509L628.257 157.961L586.814 169.532L545.416 181.036L543.96 174.653C571.125 169.6 598.335 164.795 625.545 159.878L626.845 165.449L543.915 188.458L543.041 184.894C557.991 181.803 573.008 178.984 587.98 176.029C602.952 173.074 618.059 170.186 633.076 167.389Z" fill="#263238"/>
<path d="M536.428 342.814C533.156 349.582 493.842 340.311 465.803 340.311C436.082 340.311 398.405 349.649 395.133 342.814C391.86 335.98 409.746 268.196 465.78 268.196C521.814 268.196 539.745 335.957 536.428 342.814Z" fill="#263238"/>
<path d="M513.948 344.506C499.626 343.085 481 340.311 465.804 340.311C449.868 340.311 431.601 343.017 417.637 344.439C435.276 310.265 453.678 307.378 465.804 321.024C477.907 307.378 496.331 310.265 513.948 344.506Z" fill="#FF99BA"/>
<path d="M433.236 342.679C425.369 343.604 417.95 344.506 411.786 344.935L417.905 321.814L426.871 320.212L433.236 342.679Z" fill="white"/>
<path d="M524.437 345.251C518.027 345.048 509.622 344.055 500.589 342.995L509.151 323.934L520.537 324.724L524.437 345.251Z" fill="white"/>
<path d="M614.361 401.508C610.908 382.945 604.069 365.186 594.188 349.13C584.786 334.042 572.349 321.102 557.677 311.144C546.907 303.831 534.987 298.401 522.42 295.084C521.615 297.09 520.13 298.744 518.229 299.753C516.824 300.239 515.311 300.316 513.864 299.977C512.418 299.638 511.095 298.896 510.048 297.836C508.935 300.381 506.967 302.449 504.489 303.678C500.813 305.077 497.765 301.174 497.765 301.174C497.765 301.174 493.932 310.738 486.76 311.054C479.588 311.37 475.912 299.189 475.912 299.189C475.912 299.189 473.177 305.212 468.807 305.212C464.436 305.212 457.802 296.776 457.802 296.776C457.802 296.776 457.802 296.189 457.802 295.264L454.686 296.234C437.897 301.682 422.417 310.585 409.231 322.378C395.261 334.97 383.733 350.06 375.23 366.883C356.453 404.84 350.293 447.866 357.658 489.615C361.101 508.18 367.941 525.941 377.83 541.992C387.181 556.972 399.588 569.782 414.23 579.572C429.325 589.403 446.358 595.829 464.155 598.406C481.953 600.984 500.094 599.653 517.332 594.505C534.155 589.219 549.661 580.375 562.809 568.564C576.791 555.974 588.321 540.875 596.811 524.037C615.527 486.1 621.677 443.128 614.361 401.417V401.508ZM547.68 454.449C546.013 466.861 542.719 478.997 537.885 490.54C533.803 500.401 528.097 509.499 521.008 517.45C514.87 524.328 507.27 529.725 498.774 533.24C490.6 536.53 481.7 537.558 472.998 536.218C464.104 535.065 455.682 531.528 448.612 525.977C441.46 520.171 435.692 512.826 431.735 504.48C427.157 494.839 424.225 484.491 423.061 473.87C421.661 461.395 421.917 448.788 423.823 436.381C425.483 423.85 428.776 411.594 433.617 399.929C437.715 390.012 443.444 380.862 450.562 372.86C456.701 365.983 464.3 360.586 472.796 357.07C481.144 353.813 490.202 352.848 499.043 354.273C507.762 355.473 516.008 358.984 522.935 364.447C530.059 370.227 535.803 377.542 539.746 385.853C544.349 395.57 547.274 406.005 548.397 416.711C549.788 429.268 549.547 441.954 547.68 454.449Z" fill="#37474F"/>
<path d="M602.504 398.868C599.046 380.307 592.207 362.549 582.331 346.491C572.908 331.404 560.457 318.466 545.775 308.505C535.001 301.194 523.083 295.757 510.518 292.422C509.728 294.443 508.24 296.109 506.327 297.114C504.92 297.594 503.407 297.667 501.96 297.324C500.514 296.981 499.192 296.236 498.146 295.174C497.04 297.728 495.07 299.806 492.587 301.039C488.912 302.415 485.863 298.513 485.863 298.513C485.863 298.513 482.031 308.077 474.858 308.415C467.686 308.753 464.033 296.55 464.033 296.55C464.033 296.55 461.276 302.573 456.905 302.573C452.534 302.573 445.9 294.114 445.9 294.114C445.9 294.114 445.9 293.527 445.9 292.625C444.847 292.918 443.815 293.257 442.784 293.595C426.001 299.03 410.528 307.926 397.352 319.716C383.373 332.314 371.837 347.412 363.328 364.243C344.598 402.176 338.462 445.158 345.823 486.863C349.271 505.427 356.111 523.187 365.995 539.24C375.317 554.26 387.71 567.109 402.35 576.933C417.445 586.767 434.477 593.194 452.275 595.772C470.073 598.349 488.215 597.017 505.453 591.865C522.273 586.601 537.784 577.788 550.952 566.015C564.936 553.427 576.466 538.327 584.954 521.488C603.698 483.56 609.849 440.578 602.504 398.868ZM535.711 451.787C534.041 464.199 530.747 476.335 525.916 487.878C521.834 497.739 516.128 506.837 509.039 514.788C502.901 521.666 495.301 527.063 486.805 530.578C478.627 533.854 469.731 534.881 461.029 533.556C452.153 532.427 443.736 528.939 436.643 523.45C429.478 517.652 423.702 510.305 419.743 501.953C415.163 492.307 412.237 481.95 411.092 471.321C408.529 446.183 412.155 420.796 421.648 397.402C425.73 387.483 431.452 378.331 438.571 370.334C444.717 363.465 452.315 358.07 460.805 354.544C469.145 351.257 478.203 350.261 487.051 351.657C495.77 352.845 504.017 356.348 510.944 361.807C518.105 367.619 523.88 374.972 527.844 383.327C532.439 393.045 535.357 403.48 536.473 414.184C537.839 426.699 537.583 439.339 535.711 451.787Z" fill="#455A64"/>
<path d="M492.677 274.151L486.962 305.731H473.043L469.076 276.114L467.35 295.58L453.162 296.257L449.128 270.249C454.557 268.766 460.156 268.008 465.781 267.993C475.092 267.993 484.283 270.098 492.677 274.151Z" fill="white"/>
<path d="M465.777 666.1L465.577 666.234L465.355 666.1H465.777Z" fill="black"/>
<path d="M465.332 666.1H465.777L465.577 666.234L465.332 666.1Z" fill="black"/>
<path opacity="0.1" d="M354.587 653.153C354.587 653.153 412.123 666.033 465.333 666.1C416.471 666.1 371.644 662.108 368.439 662.108C365.234 662.108 191.058 718.951 178.327 720.53C172.992 721.207 149.996 694.342 125.364 662.356C135.405 669.326 175.323 696.913 180.075 696.913C185.611 696.913 354.587 653.153 354.587 653.153Z" fill="black"/>
<path opacity="0.1" d="M806.692 661.679C781.88 693.958 758.592 721.23 753.235 720.53C740.504 718.951 566.284 662.108 563.101 662.108C559.918 662.108 514.822 666.1 465.759 666.1C518.991 666.1 576.527 653.153 576.527 653.153C576.527 653.153 745.637 696.913 751.039 696.913C755.947 696.913 798.668 667.273 806.692 661.679Z" fill="black"/>
<path d="M225.35 313.4C225.35 313.4 156.809 395.868 159.992 459.502C163.175 523.135 219.679 567.211 294.855 567.617C294.855 567.617 327.153 572.016 339.682 567.617C339.682 567.617 324.328 541.992 322.737 537.977C322.737 537.977 356.559 528.774 375.656 500.758C375.656 500.758 348.759 488.329 336.365 474.321C336.365 474.321 352.973 449.509 356.537 446.306C356.537 446.306 322.334 448.697 310.387 451.11C310.387 451.11 257.491 447.907 236.803 409.47C216.116 371.033 225.35 313.4 225.35 313.4Z" fill="#FFC727"/>
<path d="M182.652 519.638C189.433 527.685 197.311 534.725 206.052 540.548C214.697 546.45 223.975 551.353 233.711 555.165C236.109 556.158 238.641 556.88 241.085 557.782L244.76 559.045L248.548 560.06L256.102 562.045L263.767 563.466L267.622 564.165C268.9 564.346 270.2 564.436 271.5 564.594L279.255 565.406C284.432 565.79 289.655 565.744 294.944 565.925H295.213C302.566 566.974 309.977 567.561 317.403 567.684C324.742 567.953 332.086 567.279 339.256 565.677L338.023 568.564L329.237 553.902L324.934 546.481C323.522 543.932 322.132 541.608 320.832 538.654L319.936 536.646L322.177 535.924C327.276 534.236 332.249 532.186 337.06 529.789C341.892 527.407 346.564 524.709 351.046 521.713C355.502 518.73 359.694 515.364 363.575 511.653C367.394 507.948 370.827 503.859 373.818 499.45L374.782 502.72C371.061 501.006 367.542 499.179 364.023 497.239C360.504 495.299 357.052 493.246 353.668 491.058C346.76 486.76 340.431 481.582 334.841 475.652L333.787 474.479L334.616 473.148C337.71 468.231 340.87 463.381 344.165 458.576C345.823 456.185 347.482 453.817 349.275 451.471C351.063 448.99 353.123 446.72 355.416 444.704L356.694 448.268C349.006 448.719 341.296 449.306 333.63 450.005C325.965 450.704 318.277 451.471 310.746 452.757H310.567H310.455C299.672 452.356 289.027 450.184 278.941 446.328C268.855 442.562 259.575 436.897 251.597 429.636C243.757 422.274 237.494 413.378 233.195 403.492C229.01 393.654 226.371 383.221 225.373 372.567C226.851 383.1 229.873 393.354 234.338 402.996C238.826 412.551 245.219 421.073 253.121 428.034C261.032 434.908 270.156 440.226 280.017 443.711C289.81 447.263 300.115 449.175 310.522 449.373H310.23C317.941 447.907 325.651 446.96 333.384 446.148C341.116 445.336 348.827 444.772 356.582 444.253L362.589 443.869L357.837 447.839C355.875 449.678 354.103 451.711 352.547 453.907C350.844 456.163 349.208 458.531 347.594 460.9C344.389 465.637 341.273 470.486 338.247 475.359L338.046 472.855C343.379 478.464 349.405 483.361 355.977 487.427C359.279 489.532 362.656 491.517 366.108 493.382C369.537 495.254 373.078 497.036 376.575 498.638L378.995 499.743L377.538 501.999C374.389 506.716 370.728 511.066 366.623 514.969C362.531 518.825 358.122 522.326 353.444 525.435C348.78 528.505 343.921 531.263 338.897 533.691C333.873 536.153 328.683 538.256 323.365 539.984L324.687 537.255C325.673 539.511 327.153 542.127 328.498 544.563L332.711 551.94L341.385 566.602L342.753 568.857L340.197 569.466C332.687 571.124 324.994 571.783 317.313 571.429C309.721 571.151 302.153 570.398 294.653 569.173H294.922C289.632 568.88 284.343 568.835 279.076 568.338L271.186 567.369C269.864 567.188 268.564 567.053 267.241 566.85L263.364 566.06L255.586 564.481L247.943 562.226L244.11 561.143L240.39 559.767C237.924 558.819 235.392 558.007 232.993 556.925C223.246 552.834 213.984 547.658 205.38 541.496C196.768 535.386 189.108 528.019 182.652 519.638Z" fill="#263238"/>
<path d="M180.075 383.71C180.075 383.71 149.547 413.711 148.471 435.365C148.09 443.17 159.902 427.38 159.902 427.38C159.902 427.38 151.206 454.11 152.752 462.321C154.299 470.532 160.037 450.208 160.037 450.208L180.075 383.71Z" fill="#FFC727"/>
<path d="M705.36 309.16C705.36 309.16 755.813 403.899 739.832 465.592C723.851 527.285 659.636 558.775 585.94 543.752C585.94 543.752 553.418 541.496 542.077 534.594C542.077 534.594 562.249 512.646 564.669 509.059C564.669 509.059 533.425 493.111 520.38 461.69C520.38 461.69 549.204 455.058 564.199 443.87C564.199 443.87 552.992 416.17 550.078 412.29C550.078 412.29 583.093 421.651 594.3 426.456C594.3 426.456 646.748 434.148 674.765 400.763C702.782 367.379 705.36 309.16 705.36 309.16Z" fill="#FFC727"/>
<path d="M719.39 505.901C711.772 515.507 702.503 523.659 692.023 529.97C681.565 536.394 670.242 541.271 658.403 544.451C646.54 547.562 634.329 549.124 622.071 549.098C609.815 549.117 597.59 547.885 585.581 545.421H585.85C578.26 545.069 570.7 544.24 563.213 542.94C555.621 541.71 548.222 539.488 541.202 536.331L538.827 535.203L540.62 533.218L552.095 520.631L557.676 514.428C559.469 512.33 561.442 510.074 562.854 508.067L563.616 511.022C558.758 508.241 554.099 505.12 549.675 501.683C545.237 498.285 541.036 494.584 537.101 490.608C533.13 486.627 529.515 482.301 526.297 477.683C523.046 473.029 520.346 468.01 518.251 462.727L517.332 460.291L519.865 459.727C523.63 458.87 527.44 457.832 531.183 456.727C534.927 455.622 538.647 454.336 542.39 452.96C549.678 450.328 556.606 446.781 563.011 442.404L562.294 444.795C560.344 439.403 558.259 434.012 556.085 428.711C554.987 426.072 553.844 423.433 552.633 420.862C552.028 419.576 551.423 418.313 550.751 417.095C550.159 415.946 549.469 414.852 548.688 413.824L544.475 408.884L550.638 410.598C558.147 412.673 565.566 414.862 573.052 417.185C580.538 419.508 587.8 422.057 595.04 425.08H594.771C605.004 427.013 615.481 427.256 625.791 425.802C636.153 424.416 646.161 421.071 655.288 415.944C664.438 410.694 672.412 403.598 678.71 395.102C685.019 386.574 690.014 377.136 693.525 367.108C690.444 377.346 685.761 387.025 679.651 395.778C673.446 404.584 665.513 412.015 656.341 417.613C647.06 423.107 636.819 426.76 626.172 428.373C615.514 430.085 604.648 430.024 594.009 428.193H593.829C586.724 425.373 579.373 423.05 571.999 420.817C564.625 418.583 557.183 416.305 549.764 414.388L551.714 411.14C552.734 412.38 553.621 413.726 554.359 415.155C555.076 416.463 555.726 417.794 556.376 419.102C557.632 421.764 558.797 424.426 559.94 427.11C562.182 432.478 564.288 437.87 566.328 443.328L566.866 444.817L565.611 445.742C558.934 450.404 551.697 454.194 544.071 457.02C540.306 458.524 536.51 459.832 532.685 460.945C528.83 462.118 524.997 463.201 521.03 464.103L522.621 461.103C526.739 470.926 532.724 479.845 540.239 487.359C544.019 491.224 548.055 494.826 552.319 498.142C556.544 501.456 560.993 504.471 565.633 507.164L567.673 508.315L566.395 510.097C564.513 512.736 562.697 514.721 560.792 516.864L555.076 523.451L543.511 535.992L542.951 532.902C549.646 535.923 556.695 538.076 563.93 539.308C571.221 540.728 578.595 541.677 586.007 542.15H586.276C598.06 544.754 610.074 546.16 622.138 546.346C634.209 546.551 646.258 545.224 658 542.398C669.788 539.571 681.111 535.051 691.62 528.977C696.858 525.922 701.856 522.469 706.57 518.646C711.271 514.857 715.568 510.586 719.39 505.901Z" fill="#263238"/>
<path d="M742.836 433.02C742.836 433.02 749.739 458.058 745.503 472.201C741.267 486.344 739.832 465.569 739.832 465.569C739.832 465.569 738.196 492.119 735.148 493.405C732.099 494.69 733.96 482.397 733.96 482.397L742.836 433.02Z" fill="#FFC727"/>
<g opacity="0.1">
<path d="M123.144 572.376C124.175 590.422 161.449 592.677 168.196 573.933C174.942 555.188 121.822 549.616 123.144 572.376Z" fill="black"/>
<path d="M691.978 668.423C687.496 682.769 712.823 694.228 722.887 681.281C732.95 668.333 697.582 650.287 691.978 668.423Z" fill="black"/>
<path d="M519.797 635.896C518.094 642.055 525.334 645.212 528.651 639.28C531.968 633.348 521.927 628.092 519.797 635.896Z" fill="black"/>
<path d="M685.255 501.277C691.486 514.382 720.04 504.705 719.39 488.622C718.74 472.539 677.387 484.675 685.255 501.277Z" fill="black"/>
<path d="M193.008 571.068C198.118 576.617 184.67 584.489 180.838 578.94C177.005 573.391 188.906 566.602 193.008 571.068Z" fill="black"/>
<path d="M331.635 127.621C325.965 132.516 320.16 122.207 325.718 118.373C331.277 114.538 336.208 123.696 331.635 127.621Z" fill="black"/>
<path d="M714.773 458.892C719.861 464.441 706.435 472.314 702.58 466.742C698.725 461.171 710.671 454.426 714.773 458.892Z" fill="black"/>
<path d="M175.614 539.24C190.004 536.691 188.905 560.624 175.614 559.293C162.323 557.963 162.681 541.496 175.614 539.24Z" fill="black"/>
<path d="M207.397 417.861C214.121 416.643 213.695 427.967 207.397 427.358C201.099 426.749 201.3 418.944 207.397 417.861Z" fill="black"/>
<path d="M349.566 362.394C356.29 361.176 355.842 372.499 349.566 371.89C343.29 371.281 343.447 363.476 349.566 362.394Z" fill="black"/>
<path d="M631.865 135.719C638.589 134.523 638.164 145.847 631.865 145.215C625.567 144.584 625.746 136.824 631.865 135.719Z" fill="black"/>
<path d="M212.911 393.545C220.868 385.785 232.366 406.763 223.154 410.778C213.942 414.793 205.784 400.515 212.911 393.545Z" fill="black"/>
<path d="M684.09 288.994C695.095 287.798 691.351 311.438 681.624 308.911C671.897 306.385 674.228 290.076 684.09 288.994Z" fill="black"/>
<path d="M557.9 640.746C564.624 649.634 542.547 658.589 539.678 648.889C536.809 639.19 551.894 632.829 557.9 640.746Z" fill="black"/>
<path d="M318.299 87.1766C332.689 84.6277 331.591 108.561 318.299 107.23C305.008 105.899 305.389 89.4774 318.299 87.1766Z" fill="black"/>
</g>
<path d="M433.415 692.966L442.157 685.815L453.476 689.379V694.928L433.415 692.966Z" fill="#455A64"/>
<path d="M492.027 692.65L489.808 689.672L498.146 690.462L496.779 693.101L492.027 692.65Z" fill="#455A64"/>
<path d="M476.136 700.139C476.136 700.139 481 695.627 481.963 694.928C482.927 694.229 494.291 694.612 494.112 697.545C493.932 700.477 493.305 707.312 492.005 707.312H481.65L476.136 700.139Z" fill="#455A64"/>
<path d="M466.431 683.853L472.214 681.168L478.041 680.559L476.831 685.499L475.553 686.785L468.829 686.289L466.431 683.853Z" fill="#455A64"/>
<path d="M461.298 688.68H463.046L464.212 690.823H459.729C459.729 690.823 458.564 690.507 459.303 690.078C460.043 689.65 461.298 688.68 461.298 688.68Z" fill="#455A64"/>
</svg>
